<svg width="51" height="50" viewBox="0 0 51 50" fill="none" xmlns="http://www.w3.org/2000/svg">
<path d="M25.3153 2.45142C17.6961 2.45142 5.77038 4.30653 2.98771 8.48053C2.52394 9.14307 2.06016 10.2694 2.92146 12.257L2.98771 12.3895V12.5883C6.0354 23.984 11.0707 42.4688 12.2633 45.5827C12.9921 46.0465 15.9072 47.5704 22.9964 47.5704C23.6589 47.5704 24.3877 47.5704 25.1828 47.5041H25.5803C34.1933 47.5041 37.4398 45.9803 38.3011 45.5165C39.5599 42.3363 44.5289 23.9177 47.5766 12.5883L47.6429 12.3895L47.7091 12.257C48.5704 10.2694 48.1067 9.14307 47.6429 8.48053C44.8602 4.30653 32.9345 2.45142 25.3153 2.45142Z" fill="#1C517C"/>
<path d="M25.3154 0C19.22 0 -4.2339 1.7226 0.668897 13.1845C0.668897 13.1845 9.48067 46.444 10.342 47.1066C10.342 47.1066 13.3234 50.4193 25.2491 49.9555C37.6386 50.0217 40.1563 47.1066 40.1563 47.1066C41.0176 46.444 49.8293 13.1845 49.8293 13.1845C54.7984 1.7226 31.477 0 25.3154 0ZM47.7092 12.257L47.643 12.3895L47.5767 12.5883C44.529 23.9177 39.56 42.3363 38.3011 45.5165C37.4398 45.9802 34.2597 47.5041 25.5804 47.5041H25.1829C24.3878 47.5041 23.659 47.5703 22.9965 47.5703C15.9073 47.5703 12.9921 46.0465 12.2633 45.5827C11.0708 42.4025 6.03547 23.9839 2.98779 12.5883L2.92153 12.3895L2.85528 12.257C1.99398 10.2694 2.45775 9.14305 2.92153 8.48051C5.7042 4.30651 17.6299 2.4514 25.2491 2.4514C32.8683 2.4514 44.8603 4.30651 47.5767 8.48051C48.0405 9.14305 48.5043 10.2031 47.7092 12.257Z" fill="#B3B3B3"/>
<path d="M8.15525 20.2737C8.15525 20.2737 25.9113 13.1183 42.4748 20.2737L44.3962 8.54673C44.3962 8.54673 27.5014 0.596254 6.23389 8.54673L8.15525 20.2737Z" fill="#E6E6E6"/>
<path d="M23.46 17.1597L24.7188 10.3356C24.9175 9.408 25.1826 9.408 25.3151 10.3356L26.5739 17.0935L23.46 17.1597Z" fill="#C1272D"/>
<path d="M19.8826 30.6095C20.7439 29.3507 22.2015 28.2906 22.4002 27.0318C22.6653 25.1767 21.2077 23.9841 20.4789 23.7191C18.69 22.9903 15.8411 23.9178 14.9798 25.6404C14.4498 26.7005 14.516 28.0256 14.6485 29.2181C14.781 30.477 15.1786 31.7358 15.5761 32.9946C15.8411 33.6572 16.0399 34.386 16.2386 35.0485C16.9012 37.3674 16.5699 39.2225 17.4975 41.4089C17.9612 42.4689 19.0876 43.1315 20.1476 42.734C21.3402 42.2702 21.804 41.0114 21.8702 39.7525C22.0027 37.8312 20.9427 36.7048 19.8826 35.2473C19.2201 34.386 18.6238 33.3259 18.955 32.1996C19.1538 31.6033 19.5513 31.0733 19.8826 30.6095Z" fill="#276C9B"/>
<path d="M21.7376 21.7313C21.7376 22.5263 21.1413 23.1889 20.4125 23.1889C19.6837 23.1889 19.0874 22.5263 19.0874 21.7313C19.0874 20.9362 19.6837 20.2737 20.4125 20.2737C21.1413 20.2737 21.7376 20.9362 21.7376 21.7313Z" fill="#276C9B"/>
<path d="M18.6901 21.7314C18.6901 22.1952 18.4251 22.5927 18.0938 22.5927C17.7626 22.5927 17.4976 22.1952 17.4976 21.7314C17.4976 21.2676 17.7626 20.8701 18.0938 20.8701C18.4251 20.8701 18.6901 21.2676 18.6901 21.7314Z" fill="#276C9B"/>
<path d="M17.1001 22.3277C17.1001 22.659 16.9013 22.924 16.5701 22.924C16.3051 22.924 16.04 22.659 16.04 22.3277C16.04 21.9965 16.2388 21.7314 16.5701 21.7314C16.9013 21.7314 17.1001 21.9965 17.1001 22.3277Z" fill="#276C9B"/>
<path d="M15.9077 23.3878C15.9077 23.7191 15.709 23.9841 15.3777 23.9841C15.1127 23.9841 14.8477 23.7191 14.8477 23.3878C14.8477 23.0565 15.0464 22.7915 15.3777 22.7915C15.6427 22.7915 15.9077 23.0565 15.9077 23.3878Z" fill="#276C9B"/>
<path d="M14.98 24.8451C14.98 25.1763 14.7812 25.4414 14.45 25.4414C14.1849 25.4414 13.9199 25.1763 13.9199 24.8451C13.9199 24.5138 14.1187 24.2488 14.45 24.2488C14.7812 24.2488 14.98 24.5138 14.98 24.8451Z" fill="#276C9B"/>
<path d="M31.0797 30.6095C30.2184 29.3507 28.7608 28.2906 28.5621 27.0318C28.2971 25.1767 29.7546 23.9841 30.4834 23.7191C32.2723 22.9903 35.1212 23.9178 35.9825 25.6404C36.5125 26.7005 36.4463 28.0256 36.3138 29.2181C36.1813 30.477 35.7838 31.7358 35.3862 32.9946C35.1212 33.6572 34.9225 34.386 34.7237 35.0485C34.0612 37.3674 34.3924 39.2225 33.4649 41.4089C33.0011 42.4689 31.8748 43.1315 30.8147 42.734C29.6221 42.2702 29.1584 41.0114 29.0921 39.7525C28.9596 37.8312 30.0197 36.7048 31.0797 35.2473C31.7423 34.386 32.3385 33.3259 32.0073 32.1996C31.7423 31.6033 31.411 31.0733 31.0797 30.6095Z" fill="#276C9B"/>
<path d="M29.1577 21.7313C29.1577 22.5263 29.754 23.1889 30.4828 23.1889C31.2116 23.1889 31.8079 22.5263 31.8079 21.7313C31.8079 20.9362 31.2116 20.2737 30.4828 20.2737C29.754 20.2737 29.1577 20.9362 29.1577 21.7313Z" fill="#276C9B"/>
<path d="M32.2061 21.7314C32.2061 22.1952 32.4711 22.5927 32.8023 22.5927C33.1336 22.5927 33.3986 22.1952 33.3986 21.7314C33.3986 21.2676 33.1336 20.8701 32.8023 20.8701C32.4711 20.8701 32.2061 21.2676 32.2061 21.7314Z" fill="#276C9B"/>
<path d="M33.7959 22.3277C33.7959 22.659 33.9947 22.924 34.3259 22.924C34.5909 22.924 34.856 22.659 34.856 22.3277C34.856 21.9965 34.6572 21.7314 34.3259 21.7314C33.9947 21.7314 33.7959 21.9965 33.7959 22.3277Z" fill="#276C9B"/>
<path d="M35.0552 23.3878C35.0552 23.7191 35.2539 23.9841 35.5852 23.9841C35.9165 23.9841 36.1152 23.7191 36.1152 23.3878C36.1152 23.0565 35.9165 22.7915 35.5852 22.7915C35.2539 22.7915 35.0552 23.0565 35.0552 23.3878Z" fill="#276C9B"/>
<path d="M35.9165 24.8451C35.9165 25.1763 36.1153 25.4414 36.4465 25.4414C36.7116 25.4414 36.9766 25.1763 36.9766 24.8451C36.9766 24.5138 36.7778 24.2488 36.4465 24.2488C36.1153 24.2488 35.9165 24.5138 35.9165 24.8451Z" fill="#276C9B"/>
<path d="M9.01683 12.6547C9.01683 12.721 9.01683 12.7872 8.95057 12.8535L8.22178 13.1185C8.15552 13.1185 8.08927 13.1185 8.02302 13.0523L6.56543 9.27579C6.56543 9.20954 6.56543 9.14328 6.63168 9.07703L7.42673 8.81201C7.49299 8.81201 7.55924 8.81201 7.62549 8.87827L9.01683 12.6547Z" fill="#666666"/>
<path d="M10.342 10.8658C10.342 10.9321 10.342 10.9983 10.2758 11.0646L9.87827 11.1971C9.81202 11.1971 9.74576 11.1971 9.67951 11.1308L8.75195 8.48068C8.75195 8.41443 8.75195 8.34818 8.81821 8.28192L9.28198 8.14941C9.34824 8.14941 9.41449 8.14941 9.48075 8.21567L10.342 10.8658Z" fill="#666666"/>
<path d="M12.065 10.3356C12.065 10.4019 12.065 10.4682 11.9988 10.5344L11.535 10.6007C11.4687 10.6007 11.4025 10.6007 11.4025 10.5344L10.6074 7.88425C10.6074 7.81799 10.6074 7.75174 10.6737 7.68549L11.1375 7.55298C11.2037 7.55298 11.27 7.55298 11.3362 7.61923L12.065 10.3356Z" fill="#666666"/>
<path d="M13.8532 9.87196C13.8532 9.93821 13.8532 10.0045 13.787 10.0707C13.787 10.0707 13.6545 10.0707 13.5882 10.137C13.4557 10.137 13.3895 10.2032 13.3895 10.2032C13.3232 10.2032 13.257 10.2032 13.257 10.0707L12.4619 7.28806C12.4619 7.2218 12.4619 7.15555 12.5282 7.08929C12.5282 7.08929 12.6607 7.0893 12.7269 7.02304C12.8594 7.02304 12.9919 6.95679 12.9919 6.95679C13.0582 6.95679 13.1245 6.95679 13.1907 7.08929L13.8532 9.87196Z" fill="#666666"/>
<path d="M15.6426 9.408C15.6426 9.47426 15.6426 9.54051 15.5764 9.60676L15.1126 9.73927C15.0463 9.73927 14.9801 9.73927 14.9801 9.60676L14.3838 6.89035C14.3838 6.8241 14.3838 6.75784 14.5163 6.69159L14.9801 6.55908C15.0463 6.55908 15.1126 6.55908 15.1788 6.69159L15.6426 9.408Z" fill="#666666"/>
<path d="M17.9619 10.2691C17.9619 10.3354 17.8956 10.4016 17.8294 10.4016L17.1006 10.5341C17.0343 10.5341 16.9681 10.4679 16.9681 10.4016L16.2393 6.42639C16.2393 6.36014 16.3055 6.29388 16.3718 6.29388L17.1668 6.16138C17.2331 6.16138 17.2993 6.22763 17.2993 6.29388L17.9619 10.2691Z" fill="#666666"/>
<path d="M19.617 8.7455C19.617 8.81175 19.5508 8.878 19.4845 8.878L19.0208 8.94426C18.9545 8.94426 18.8882 8.878 18.8882 8.81175L18.4907 6.02908C18.4907 5.96283 18.557 5.89658 18.6232 5.89658L19.087 5.83032C19.1533 5.83032 19.2195 5.89658 19.2195 5.96283L19.617 8.7455Z" fill="#666666"/>
<path d="M21.4059 8.54677C21.4059 8.61302 21.3397 8.67927 21.2734 8.67927L20.8096 8.74553C20.7434 8.74553 20.6771 8.67927 20.6771 8.61302L20.4121 5.83035C20.4121 5.7641 20.4784 5.69785 20.5446 5.69785L21.0084 5.63159C21.0746 5.63159 21.1409 5.69785 21.1409 5.7641L21.4059 8.54677Z" fill="#666666"/>
<path d="M23.2615 8.4806C23.2615 8.54686 23.1953 8.61311 23.129 8.61311H22.6653C22.599 8.61311 22.5327 8.54686 22.5327 8.4806L22.334 5.69794C22.334 5.63168 22.4002 5.56543 22.4665 5.56543H22.9303C22.9965 5.56543 23.0628 5.63168 23.0628 5.69794L23.2615 8.4806Z" fill="#666666"/>
<path d="M25.0504 8.41395C25.0504 8.48021 24.9842 8.54646 24.9179 8.54646H24.4541C24.3879 8.54646 24.3216 8.48021 24.3216 8.41395L24.2554 5.63129C24.2554 5.56503 24.3216 5.49878 24.3879 5.49878H24.8517C24.9179 5.49878 24.9842 5.56503 24.9842 5.63129L25.0504 8.41395Z" fill="#666666"/>
<path d="M27.1704 9.67278C27.1704 9.73903 27.1042 9.80529 27.0379 9.80529C27.0379 9.80529 26.8391 9.80529 26.6404 9.80529C26.4416 9.80529 26.2429 9.80529 26.2429 9.80529C26.1766 9.80529 26.1104 9.73903 26.1104 9.67278L26.1766 5.63129C26.1766 5.56503 26.2429 5.49878 26.3091 5.49878C26.3091 5.49878 26.5079 5.49878 26.7066 5.49878C26.9054 5.49878 27.1042 5.49878 27.1042 5.49878C27.1704 5.49878 27.2367 5.56503 27.2367 5.63129L27.1704 9.67278Z" fill="#666666"/>
<path d="M29.0916 8.54677C29.0916 8.61302 29.0253 8.67927 28.9591 8.67927H28.4953C28.429 8.67927 28.3628 8.61302 28.3628 8.54677L28.5616 5.7641C28.5616 5.69785 28.6278 5.63159 28.6941 5.63159L29.1578 5.69785C29.2241 5.69785 29.2903 5.7641 29.2903 5.83035L29.0916 8.54677Z" fill="#666666"/>
<path d="M30.8806 8.81184C30.8806 8.8781 30.8144 8.94435 30.7481 8.94435L30.2844 8.8781C30.2181 8.8781 30.1519 8.81184 30.1519 8.74559L30.4831 5.89667C30.4831 5.83041 30.5494 5.76416 30.6156 5.76416L31.1457 5.83041C31.2119 5.83041 31.2782 5.89667 31.2782 5.96292L30.8806 8.81184Z" fill="#666666"/>
<path d="M32.7356 9.07673C32.7356 9.14299 32.6694 9.20924 32.6031 9.20924L32.1393 9.14299C32.0731 9.14299 32.0068 9.07673 32.0068 9.01048L32.4706 6.16156C32.4706 6.09531 32.5369 6.02905 32.6031 6.02905L33.0669 6.09531C33.1332 6.09531 33.1994 6.16156 33.1994 6.22781L32.7356 9.07673Z" fill="#666666"/>
<path d="M34.4588 9.40809C34.4588 9.47435 34.3925 9.5406 34.3263 9.5406L33.8625 9.47435C33.7962 9.47435 33.73 9.40809 33.73 9.34184L34.26 6.62543C34.26 6.55917 34.3263 6.49292 34.4588 6.49292L34.9226 6.55917C34.9888 6.55917 35.0551 6.62543 35.0551 6.75794L34.4588 9.40809Z" fill="#666666"/>
<path d="M36.2475 11.1307C36.2475 11.197 36.1812 11.2632 36.115 11.2632L35.3862 11.0645C35.3199 11.0645 35.2537 10.9982 35.3199 10.8657L36.3137 6.95673C36.3137 6.89047 36.38 6.82422 36.5125 6.82422L37.3075 7.02298C37.3738 7.02298 37.4401 7.08923 37.4401 7.22174L36.2475 11.1307Z" fill="#666666"/>
<path d="M38.3677 10.4685C38.3677 10.5348 38.2352 10.601 38.169 10.5348L37.7714 10.4685C37.7052 10.4685 37.6389 10.336 37.7052 10.2697L38.5002 7.61958C38.5002 7.55332 38.6327 7.48707 38.699 7.55332L39.1628 7.68583C39.229 7.68583 39.2953 7.81834 39.229 7.88459L38.3677 10.4685Z" fill="#666666"/>
<path d="M40.0899 11.0645C40.0899 11.1308 39.9574 11.197 39.8911 11.1308L39.4936 10.9983C39.4273 10.9983 39.3611 10.8658 39.4273 10.7995L40.3549 8.14936C40.3549 8.08311 40.4874 8.01685 40.5537 8.08311L41.0174 8.28187C41.0837 8.28187 41.1499 8.41438 41.0837 8.48063L40.0899 11.0645Z" fill="#666666"/>
<path d="M41.8124 11.7268C41.8124 11.7931 41.6799 11.8593 41.6137 11.7931L41.2162 11.6605C41.1499 11.6605 41.1499 11.528 41.1499 11.4618L42.21 8.87788C42.21 8.81162 42.3425 8.74537 42.4087 8.81162L42.8725 9.01039C42.9388 9.01039 43.005 9.14289 42.9388 9.20915L41.8124 11.7268Z" fill="#666666"/>
<path d="M43.4687 12.5221C43.4687 12.5883 43.3362 12.6546 43.2699 12.5883L42.8724 12.3895C42.8062 12.3895 42.8062 12.257 42.8062 12.1908L43.9325 9.60688C43.9325 9.54063 44.065 9.47437 44.1312 9.54063L43.8662 11.5945L43.4687 12.5221Z" fill="#666666"/>
<path d="M8.15525 20.2736C8.15525 20.2736 23.2612 9.67296 32.2054 5.49896C32.2054 5.49896 20.4122 3.24633 6.23389 8.6129L8.15525 20.2736Z" fill="#666666"/>
</svg>
