<svg width="27" height="27" viewBox="0 0 27 27" fill="none" xmlns="http://www.w3.org/2000/svg">
<rect width="27" height="27" fill="#1E1E1E"/>
<g clip-path="url(#clip0_0_1)">
<rect width="360" height="800" transform="translate(-262 -746)" fill="white"/>
<g filter="url(#filter0_d_0_1)">
<path d="M-262 -18C-262 -26.2843 -255.284 -33 -247 -33H83C91.2843 -33 98 -26.2843 98 -18V54H-262V-18Z" fill="white"/>
</g>
<path d="M9.33482 24.0594L9.04301 24.7503L9.04301 24.7503L9.33482 24.0594ZM6.55853 23.7803L6.75238 24.5048L6.75238 24.5048L6.55853 23.7803ZM2 25L1.27549 24.8061L0.939999 26.06L2.19385 25.7245L2 25ZM2.94059 17.6652L3.63149 17.3734L3.63149 17.3734L2.94059 17.6652ZM3.2197 20.4415L3.94421 20.6353L3.94421 20.6353L3.2197 20.4415ZM7.84643 23.5366L7.79465 24.2848L7.79465 24.2848L7.84643 23.5366ZM11.5034 15.4966L10.973 16.027L10.973 16.027L11.5034 15.4966ZM8.1291 9.48603L8.86068 9.32083L8.86068 9.32083L8.1291 9.48603ZM10.9509 12.1548L10.3667 11.6844L10.3667 11.6844L10.9509 12.1548ZM11.601 7.70784L10.86 7.82396L10.86 7.82396L11.601 7.70784ZM11.9786 10.3699L11.2298 10.3261L11.2298 10.3261L11.9786 10.3699ZM8.03501 8.3648L7.30092 8.2111L7.30092 8.2111L8.03501 8.3648ZM9.00194 7.15518L8.69033 6.47298L8.69033 6.47298L9.00194 7.15518ZM17.514 18.8709L17.3488 19.6025L17.3488 19.6025L17.514 18.8709ZM14.8452 16.0491L15.3156 16.6333L15.3156 16.6333L14.8452 16.0491ZM19.2922 15.399L19.176 16.14L19.176 16.14L19.2922 15.399ZM16.6301 15.0214L16.6739 15.7702L16.6739 15.7702L16.6301 15.0214ZM18.6352 18.965L18.7889 19.6991L18.7889 19.6991L18.6352 18.965ZM19.8448 17.9981L20.527 18.3097L20.527 18.3097L19.8448 17.9981ZM25.25 13C25.25 19.2132 20.2132 24.25 14 24.25V25.75C21.0416 25.75 26.75 20.0416 26.75 13H25.25ZM2.75 13C2.75 6.7868 7.7868 1.75 14 1.75V0.25C6.95837 0.25 1.25 5.95837 1.25 13H2.75ZM14 1.75C20.2132 1.75 25.25 6.7868 25.25 13H26.75C26.75 5.95837 21.0416 0.25 14 0.25V1.75ZM14 24.25C12.4474 24.25 10.9701 23.9359 9.62662 23.3685L9.04301 24.7503C10.5678 25.3943 12.2433 25.75 14 25.75V24.25ZM6.36467 23.0558L1.80615 24.2755L2.19385 25.7245L6.75238 24.5048L6.36467 23.0558ZM3.63149 17.3734C3.06409 16.0299 2.75 14.5526 2.75 13H1.25C1.25 14.7567 1.60569 16.4322 2.24968 17.957L3.63149 17.3734ZM2.72451 25.1939L3.94421 20.6353L2.49519 20.2476L1.27549 24.8061L2.72451 25.1939ZM2.24968 17.957C2.42003 18.3603 2.53699 18.6378 2.61551 18.8522C2.69532 19.0701 2.71234 19.1637 2.71522 19.2053L4.21165 19.1018C4.1938 18.8439 4.11678 18.5896 4.02403 18.3364C3.92999 18.0796 3.79589 17.7626 3.63149 17.3734L2.24968 17.957ZM3.94421 20.6353C4.10529 20.0333 4.24314 19.557 4.21165 19.1018L2.71522 19.2053C2.72518 19.3492 2.68672 19.5318 2.49519 20.2476L3.94421 20.6353ZM9.62662 23.3685C9.23737 23.2041 8.92039 23.07 8.66363 22.976C8.41037 22.8832 8.15609 22.8062 7.8982 22.7884L7.79465 24.2848C7.83626 24.2877 7.92988 24.3047 8.14779 24.3845C8.36221 24.463 8.63967 24.58 9.04301 24.7503L9.62662 23.3685ZM6.75238 24.5048C7.46823 24.3133 7.65082 24.2748 7.79465 24.2848L7.89821 22.7884C7.44303 22.7569 6.96669 22.8947 6.36467 23.0558L6.75238 24.5048ZM12.0337 14.9663C10.3742 13.3068 9.31198 11.3194 8.86068 9.32083L7.39752 9.65122C7.91257 11.9321 9.1173 14.1712 10.973 16.027L12.0337 14.9663ZM10.3667 11.6844L9.32161 12.9825L10.49 13.9232L11.5351 12.6251L10.3667 11.6844ZM10.86 7.82396C10.9898 8.65198 11.0861 9.26643 11.1487 9.69729C11.1801 9.91306 11.202 10.076 11.2153 10.1933C11.231 10.3319 11.2282 10.3547 11.2298 10.3261L12.7273 10.4137C12.7343 10.2931 12.7193 10.1437 12.7057 10.024C12.6897 9.88308 12.6651 9.70174 12.6331 9.48151C12.569 9.04033 12.4711 8.41574 12.3419 7.59171L10.86 7.82396ZM8.86068 9.32083C8.74238 8.79694 8.73089 8.70092 8.76909 8.51849L7.30092 8.2111C7.18604 8.7598 7.28831 9.16756 7.39752 9.65122L8.86068 9.32083ZM10.368 6.25C9.73836 6.25 9.21 6.2356 8.69033 6.47298L9.31355 7.83738C9.47333 7.7644 9.62919 7.75 10.368 7.75V6.25ZM8.76909 8.5185C8.78653 8.43517 8.85284 8.2871 8.97957 8.12857C9.10629 7.97004 9.23612 7.87275 9.31355 7.83738L8.69033 6.47298C8.33839 6.63374 8.03312 6.91024 7.8079 7.19198C7.58269 7.47372 7.38022 7.83239 7.30092 8.2111L8.76909 8.5185ZM10.973 16.027C12.8288 17.8827 15.0679 19.0874 17.3488 19.6025L17.6792 18.1393C15.6806 17.688 13.6932 16.6258 12.0337 14.9663L10.973 16.027ZM14.3749 15.4649L13.0768 16.51L14.0175 17.6784L15.3156 16.6333L14.3749 15.4649ZM19.4083 14.6581C18.5843 14.5289 17.9597 14.431 17.5185 14.3669C17.2983 14.3349 17.1169 14.3103 16.976 14.2943C16.8563 14.2807 16.7069 14.2657 16.5863 14.2727L16.6739 15.7702C16.6453 15.7718 16.6681 15.769 16.8067 15.7847C16.924 15.798 17.0869 15.8199 17.3027 15.8513C17.7336 15.9139 18.348 16.0102 19.176 16.14L19.4083 14.6581ZM17.3488 19.6025C17.8324 19.7117 18.2402 19.814 18.7889 19.6991L18.4815 18.2309C18.2991 18.2691 18.2031 18.2576 17.6792 18.1393L17.3488 19.6025ZM19.25 16.632C19.25 17.3708 19.2356 17.5267 19.1626 17.6864L20.527 18.3097C20.7644 17.79 20.75 17.2616 20.75 16.632H19.25ZM18.7889 19.6991C19.1676 19.6198 19.5263 19.4173 19.808 19.1921C20.0898 18.9669 20.3663 18.6616 20.527 18.3097L19.1626 17.6864C19.1273 17.7639 19.03 17.8937 18.8714 18.0204C18.7129 18.1472 18.5648 18.2135 18.4815 18.2309L18.7889 19.6991ZM11.5351 12.6251C11.7059 12.413 12.0167 12.0694 12.2326 11.7543C12.472 11.4049 12.6951 10.964 12.7273 10.4137L11.2298 10.3261C11.2194 10.5043 11.1489 10.6822 10.9953 10.9064C10.8181 11.1648 10.6364 11.3495 10.3667 11.6844L11.5351 12.6251ZM10.368 7.75C10.4881 7.75 10.5905 7.75356 10.6798 7.76411C10.77 7.77478 10.8248 7.79026 10.8547 7.80274C10.8804 7.81344 10.8729 7.81549 10.8592 7.79878C10.8437 7.77993 10.8526 7.7769 10.86 7.82396L12.3419 7.59172C12.247 6.98617 11.8798 6.60488 11.4317 6.41815C11.0504 6.25924 10.6321 6.25 10.368 6.25V7.75ZM15.3156 16.6333C15.6505 16.3636 15.8352 16.1819 16.0936 16.0047C16.3178 15.8511 16.4957 15.7806 16.6739 15.7702L16.5863 14.2727C16.036 14.3049 15.5951 14.528 15.2457 14.7674C14.9306 14.9833 14.587 15.2941 14.3749 15.4649L15.3156 16.6333ZM20.75 16.632C20.75 16.3679 20.7408 15.9496 20.5818 15.5683C20.3951 15.1202 20.0138 14.753 19.4083 14.6581L19.176 16.14C19.2231 16.1474 19.2201 16.1563 19.2012 16.1408C19.1845 16.1271 19.1866 16.1196 19.1973 16.1453C19.2097 16.1752 19.2252 16.23 19.2359 16.3202C19.2464 16.4095 19.25 16.5119 19.25 16.632H20.75Z" fill="#07273D"/>
</g>
<defs>
<filter id="filter0_d_0_1" x="-266" y="-38" width="368" height="95" filterUnits="userSpaceOnUse" color-interpolation-filters="sRGB">
<feFlood flood-opacity="0" result="BackgroundImageFix"/>
<feColorMatrix in="SourceAlpha" type="matrix" values="0 0 0 0 0 0 0 0 0 0 0 0 0 0 0 0 0 0 127 0" result="hardAlpha"/>
<feOffset dy="-1"/>
<feGaussianBlur stdDeviation="2"/>
<feComposite in2="hardAlpha" operator="out"/>
<feColorMatrix type="matrix" values="0 0 0 0 0.027451 0 0 0 0 0.152941 0 0 0 0 0.239216 0 0 0 0.25 0"/>
<feBlend mode="normal" in2="BackgroundImageFix" result="effect1_dropShadow_0_1"/>
<feBlend mode="normal" in="SourceGraphic" in2="effect1_dropShadow_0_1" result="shape"/>
</filter>
<clipPath id="clip0_0_1">
<rect width="360" height="800" fill="white" transform="translate(-262 -746)"/>
</clipPath>
</defs>
</svg>
